<svg xmlns="http://www.w3.org/2000/svg" viewBox="0 0 512 512" role="img" aria-labelledby="title desc">
  <title id="title">University of Ibadan Department of Statistics</title>
  <desc id="desc">Department of Statistics seal with pie chart and rising bar chart</desc>
  <defs>
    <linearGradient id="ring" x1="0" y1="0" x2="1" y2="1">
      <stop offset="0" stop-color="#0b8515"/>
      <stop offset=".55" stop-color="#003d1a"/>
      <stop offset="1" stop-color="#087914"/>
    </linearGradient>
    <path id="topArc" d="M 83 259 A 173 173 0 0 1 429 259"/>
    <path id="bottomArc" d="M 429 263 A 173 173 0 0 1 83 263"/>
  </defs>
  <circle cx="256" cy="256" r="246" fill="#058413"/>
  <circle cx="256" cy="256" r="231" fill="url(#ring)" stroke="#0cab1d" stroke-width="10"/>
  <circle cx="256" cy="256" r="183" fill="#fff"/>
  <circle cx="256" cy="256" r="181" fill="none" stroke="#e7e7e7" stroke-width="3"/>
  <g fill="#fff" font-family="Arial, Helvetica, sans-serif" font-size="29" font-weight="700" letter-spacing="2.4">
    <text><textPath href="#topArc" startOffset="50%" text-anchor="middle">DEPARTMENT OF STATISTICS</textPath></text>
    <text><textPath href="#bottomArc" startOffset="50%" text-anchor="middle">UNIVERSITY OF IBADAN</textPath></text>
  </g>
  <circle cx="69" cy="256" r="9" fill="#44c84e"/>
  <circle cx="443" cy="256" r="9" fill="#44c84e"/>
  <g transform="translate(0 3)">
    <path d="M211 103a62 62 0 0 0-51 81l51-30z" fill="#009311"/>
    <path d="M220 103v58h58a62 62 0 0 0-58-58z" fill="#f36a0a"/>
    <path d="M210 166l-49 29a62 62 0 0 0 98 1z" fill="#fff200"/>
    <path d="M223 171l43 25a62 62 0 0 0 12-26z" fill="#003817"/>
    <path d="M181 294 350 168" fill="none" stroke="#07471e" stroke-width="12"/>
    <path d="m328 169 32-14-7 34z" fill="#07471e"/>
    <path d="M194 307h14v39h-14zM223 286h16v60h-16zM255 264h17v82h-17zM289 239h18v107h-18zM325 213h18v133h-18z" fill="#075022"/>
  </g>
</svg>
